<?xml version="1.0" encoding="UTF-8"?>
<svg xmlns="http://www.w3.org/2000/svg" width="512" height="512" viewBox="0 0 128 128"><g><path d="M127.807,127.031a1.869,1.869,0,0,0,.193-.784V53a1.893,1.893,0,0,0-.638-1.351L109.007,36.539V17.074a1.749,1.749,0,0,0-1.75-1.75H83.241L65.112.4a1.744,1.744,0,0,0-2.224,0L44.759,15.324H20.744a1.749,1.749,0,0,0-1.75,1.75V36.539L.638,51.653A1.889,1.889,0,0,0,0,53v73.243A1.773,1.773,0,0,0,1.75,128h124.5A1.749,1.749,0,0,0,127.807,127.031ZM3.5,56.21,19.778,66.678l.019.012,26.585,17.1L3.5,122.321ZM49.434,85.75l13.619,8.758a1.8,1.8,0,0,0,1.894,0l13.619-8.759L121.684,124.5H6.316Zm32.184-1.963L108.2,66.69l.012-.008L124.5,56.21v66.111ZM123.285,52.83l-14.278,9.182V41.072ZM64,4.014l13.736,11.31H50.265ZM22.494,18.824h83.013V64.263L87.281,75.984,64,90.955,22.494,64.263V18.824Zm-3.5,43.188L4.715,52.83,18.994,41.072Z"/><path d="M82.614,27.969H99.257a1.75,1.75,0,0,0,0-3.5H82.614a1.75,1.75,0,0,0,0,3.5Z"/><path d="M75.844,36.513H99.257a1.75,1.75,0,0,0,0-3.5H75.844a1.75,1.75,0,0,0,0,3.5Z"/><path d="M37.219,45.058H99.257a1.75,1.75,0,0,0,0-3.5H37.219a1.75,1.75,0,0,0,0,3.5Z"/><path d="M28.744,53.6H99.257a1.75,1.75,0,0,0,0-3.5H28.744a1.75,1.75,0,0,0,0,3.5Z"/><path d="M28.744,62.146H99.257a1.75,1.75,0,0,0,0-3.5H28.744a1.75,1.75,0,0,0,0,3.5Z"/><path d="M84.375,67.19H43.625a1.75,1.75,0,0,0,0,3.5h40.75a1.75,1.75,0,0,0,0-3.5Z"/><path d="M70.789,75.734H57.211a1.75,1.75,0,0,0,0,3.5H70.789a1.75,1.75,0,0,0,0-3.5Z"/></g></svg>
