<?xml version="1.0" encoding="UTF-8"?>
<svg xmlns="http://www.w3.org/2000/svg" id="Icons" viewBox="0 0 74 74" width="512" height="512"><path d="M36.958,64.989c-8.916,0-17.86-.373-26.777-1.121a6.042,6.042,0,0,1-5.493-6v-9.83a11.724,11.724,0,0,1,4.293-9.26L4.4,37.621a3.17,3.17,0,0,1-2.13-4.35,5.413,5.413,0,0,1,4.94-3.211h4.439a4.191,4.191,0,0,1,3.07,1.918L18,26.606a10.7,10.7,0,0,1,9.056-5.086H46.945A10.7,10.7,0,0,1,56,26.605l3.28,5.371a4.144,4.144,0,0,1,2.989-1.913l4.521,0a5.413,5.413,0,0,1,4.938,3.2A3.284,3.284,0,0,1,72,34.547a3.16,3.16,0,0,1-2.4,3.076l-4.614,1.163.074.065A12.156,12.156,0,0,1,69.035,48v9.861a6.042,6.042,0,0,1-5.495,6C54.755,64.616,45.87,64.989,36.958,64.989ZM11.552,32.055l-4.344.005A3.412,3.412,0,0,0,4.1,34.079a1.174,1.174,0,0,0,.026.988,1.138,1.138,0,0,0,.76.614l6.9,1.736a1,1,0,0,1,.127,1.9,5.486,5.486,0,0,0-1.116.612,9.637,9.637,0,0,0-4.106,8.107v9.83a4.031,4.031,0,0,0,3.659,4.011,315.914,315.914,0,0,0,53.026,0,4.032,4.032,0,0,0,3.662-4.011V48a10.158,10.158,0,0,0-3.3-7.653,4.782,4.782,0,0,0-1.559-1.01,1,1,0,0,1,.057-1.923l6.882-1.735A1.18,1.18,0,0,0,70,34.547a1.246,1.246,0,0,0-.106-.487,3.406,3.406,0,0,0-3.1-2H62.352c-.073.014-1.561.242-1.851,2.347a1,1,0,0,1-1.844.385L54.3,27.649a8.686,8.686,0,0,0-7.35-4.129H27.054a8.684,8.684,0,0,0-7.35,4.13l-4.362,7.142a1,1,0,0,1-1.844-.385C13.208,32.3,11.72,32.074,11.552,32.055Z"/><path d="M53.485,39.744H20.515a1.879,1.879,0,0,1-1.639-2.8l4.1-7.305h0a5.244,5.244,0,0,1,4.568-2.674H46.453a5.244,5.244,0,0,1,4.568,2.674l4.1,7.3a1.879,1.879,0,0,1-1.639,2.8Zm-32.763-2H53.278l-4-7.123a3.245,3.245,0,0,0-2.824-1.653H27.547a3.243,3.243,0,0,0-2.824,1.653Z"/><path d="M44.714,55.489H29.335a2.8,2.8,0,0,1-2.7-2.013L26.076,51.6a2.865,2.865,0,0,1,2.745-3.684H45.228A2.866,2.866,0,0,1,47.973,51.6l-.558,1.871A2.835,2.835,0,0,1,44.714,55.489ZM28.821,49.92a.867.867,0,0,0-.829,1.112h0L28.55,52.9a.815.815,0,0,0,.785.585H44.714A.824.824,0,0,0,45.5,52.9l.558-1.872a.867.867,0,0,0-.829-1.112Z"/><path d="M20.9,55.241a2.245,2.245,0,0,1-.571-.075l-7.1-1.945a4.162,4.162,0,0,1-2.946-5.175,4.459,4.459,0,0,1,4.264-3.227,4.7,4.7,0,0,1,1.047.131l.6.173a9.126,9.126,0,0,1,6.547,6.406l.26.934a2.194,2.194,0,0,1-2.1,2.778Zm-6.356-8.422A2.451,2.451,0,0,0,12.205,48.6a2.16,2.16,0,0,0,1.531,2.69l.013,0,7.1,1.944A.19.19,0,0,0,21.074,53l-.26-.935a7.138,7.138,0,0,0-5.139-5.009l-.578-.167A2.746,2.746,0,0,0,14.546,46.819Z"/><path d="M53.1,55.24A2.192,2.192,0,0,1,51,52.463l.26-.935a9.144,9.144,0,0,1,6.583-6.415l.506-.147a4.794,4.794,0,0,1,1.107-.147,4.461,4.461,0,0,1,4.265,3.229,4.162,4.162,0,0,1-2.947,5.173l-7.095,1.943A2.275,2.275,0,0,1,53.1,55.24Zm6.356-8.421a2.865,2.865,0,0,0-.611.083l-.482.142a7.156,7.156,0,0,0-5.175,5.019l-.26.935a.178.178,0,0,0,.048.185.175.175,0,0,0,.183.049l7.094-1.941.013,0A2.16,2.16,0,0,0,61.8,48.6,2.452,2.452,0,0,0,59.454,46.819Z"/><path d="M63.5,70.583H57.421a3.016,3.016,0,0,1-3.012-3.013V63.456a1,1,0,0,1,2,0V67.57a1.014,1.014,0,0,0,1.012,1.013H63.5a1.015,1.015,0,0,0,1.013-1.013V62.227a1,1,0,0,1,2,0V67.57A3.017,3.017,0,0,1,63.5,70.583Z"/><path d="M16.579,70.583H10.5A3.017,3.017,0,0,1,7.483,67.57V62.227a1,1,0,1,1,2,0V67.57A1.015,1.015,0,0,0,10.5,68.583h6.083a1.014,1.014,0,0,0,1.012-1.013V63.456a1,1,0,0,1,2,0V67.57A3.016,3.016,0,0,1,16.579,70.583Z"/><path d="M51.569,18.273A6.86,6.86,0,0,1,45.4,14.485H28.6a6.922,6.922,0,0,1-12.592-.545,1,1,0,0,1,.927-1.376h2.786L20.9,10.843,19.724,9.121H16.938a1,1,0,0,1-.927-1.376A6.924,6.924,0,0,1,28.6,7.206H45.4a6.921,6.921,0,0,1,12.59.541,1,1,0,0,1-.928,1.374H54.276L53.1,10.843l1.172,1.721h2.786a1,1,0,0,1,.928,1.374A6.889,6.889,0,0,1,51.569,18.273ZM27.954,12.485h18.1a1,1,0,0,1,.933.64A4.921,4.921,0,0,0,55.3,14.564H53.747a1,1,0,0,1-.826-.437l-1.854-2.721a1,1,0,0,1,0-1.126l1.854-2.722a1,1,0,0,1,.826-.437H55.3a4.922,4.922,0,0,0-8.316,1.444,1,1,0,0,1-.933.641h-18.1a1,1,0,0,1-.933-.64A4.923,4.923,0,0,0,18.7,7.121h1.549a1,1,0,0,1,.826.437l1.854,2.722a1,1,0,0,1,0,1.126l-1.854,2.721a1,1,0,0,1-.826.437H18.7a4.922,4.922,0,0,0,8.32-1.44A1,1,0,0,1,27.954,12.485Z"/></svg>
