<svg id="Capa_1" enable-background="new 0 0 587.852 587.852" height="512" viewBox="0 0 587.852 587.852" width="512" xmlns="http://www.w3.org/2000/svg"><g><g><path d="m445.63 379.259c-15.682 0-28.444 12.762-28.444 28.444s12.762 28.444 28.444 28.444 28.444-12.762 28.444-28.444-12.762-28.444-28.444-28.444zm0 37.926c-5.224 0-9.481-4.248-9.481-9.482s4.257-9.481 9.481-9.481 9.481 4.248 9.481 9.481c0 5.235-4.257 9.482-9.481 9.482z"/><path d="m161.489 379.259c-15.682 0-28.444 12.762-28.444 28.444s12.762 28.444 28.444 28.444 28.444-12.762 28.444-28.444-12.753-28.444-28.444-28.444zm0 37.926c-5.224 0-9.481-4.248-9.481-9.482s4.257-9.481 9.481-9.481 9.481 4.248 9.481 9.481c0 5.235-4.257 9.482-9.481 9.482z"/><path d="m575.355 224.759-35.612-38.751c-8.96-9.747-21.675-15.341-34.92-15.341h-78.156c-26.14 0-47.407 21.267-47.407 47.407v161.185h-18.963v-246.518c0-10.458-8.505-18.963-18.963-18.963h-18.964c-10.458 0-18.963 8.505-18.963 18.963v66.617c-7.945-6.021-17.73-9.728-28.444-9.728h-12.392l-12.288-32.777c-9.662-25.771-34.636-43.074-62.151-43.074h-67.859c-30.511 0-56.984 20.679-64.389 50.28l-6.4 25.572h-2.076c-26.141-.001-47.408 21.266-47.408 47.406v18.963c0 15.682 12.762 28.444 28.444 28.444h10.439c1.441 7.045 4.57 13.426 8.761 18.963h-.237c-15.682 0-28.444 12.762-28.444 28.444v47.407c-10.458.001-18.963 8.506-18.963 18.964v18.963c0 10.458 8.505 18.963 18.963 18.963h82.65c10.676 22.386 33.47 37.926 59.876 37.926s49.199-15.54 59.876-37.926h26.899c3.925 11.008 14.355 18.963 26.7 18.963h56.889c12.345 0 22.775-7.955 26.7-18.963h27.202c10.676 22.386 33.47 37.926 59.876 37.926s49.199-15.54 59.876-37.926h53.902c15.682 0 28.444-12.762 28.444-28.444v-150.86c-.001-11.918-4.438-23.306-12.498-32.085zm-148.688-35.129h78.156c7.945 0 15.578 3.356 20.945 9.207l35.622 38.76c4.836 5.262 7.5 12.098 7.5 19.247v65.527h-9.482c-15.682 0-28.444 12.762-28.444 28.444v28.444h-25.458c-10.676-22.386-33.47-37.926-59.876-37.926-18.565 0-35.347 7.68-47.407 20.015v-143.274c-.001-15.682 12.761-28.444 28.444-28.444zm142.222 151.703v37.926h-18.963v-28.444c0-5.234 4.257-9.481 9.481-9.481h9.482zm-437.106-56.889h58.804c1.441 7.045 4.57 13.426 8.761 18.963h-76.335c4.2-5.537 7.329-11.918 8.77-18.963zm76.81-9.481c0-15.682 12.762-28.444 28.444-28.444s28.444 12.762 28.444 28.444-12.762 28.444-28.444 28.444-28.444-12.762-28.444-28.444zm74.894 9.481h10.439c3.337 0 6.504-.683 9.481-1.745v20.708h-28.691c4.201-5.537 7.33-11.918 8.771-18.963zm-264.524-28.444v-18.963c0-15.682 12.762-28.444 28.444-28.444h16.887l9.984-39.945c5.291-21.134 24.197-35.906 45.995-35.906h67.859c19.655 0 37.49 12.364 44.392 30.767l16.905 45.084h25.534c15.682 0 28.444 12.762 28.444 28.444v18.963c0 5.234-4.257 9.481-9.481 9.481h-10.439c-4.409-21.608-23.552-37.926-46.45-37.926s-42.041 16.318-46.45 37.926h-58.804c-4.409-21.608-23.552-37.926-46.45-37.926s-42.041 16.318-46.45 37.926h-10.439c-5.224 0-9.481-4.247-9.481-9.481zm37.926 18.963c0-15.682 12.762-28.444 28.444-28.444s28.444 12.762 28.444 28.444-12.762 28.444-28.444 28.444-28.444-12.762-28.444-28.444zm-18.963 56.889c0-5.234 4.257-9.481 9.481-9.481h274.963v-66.371-18.963-104.296h18.963v229.3c-2.977-1.062-6.144-1.745-9.481-1.745h-56.889c-12.345 0-22.775 7.955-26.7 18.963h-26.899c-10.676-22.386-33.47-37.926-59.876-37.926s-49.199 15.54-59.876 37.926h-63.686zm-18.963 85.333v-18.963h76.914c-.446 3.11-.759 6.258-.759 9.481 0 3.224.313 6.372.759 9.482zm142.526 37.926c-26.14 0-47.407-21.267-47.407-47.407s21.267-47.407 47.407-47.407 47.407 21.267 47.407 47.407-21.267 47.407-47.407 47.407zm65.611-56.889h19.418v18.963h-19.418c.446-3.11.759-6.258.759-9.482 0-3.223-.303-6.371-.759-9.481zm114.233 28.445c0 5.234-4.257 9.481-9.481 9.481h-56.889c-5.224 0-9.482-4.248-9.482-9.481v-37.926c0-5.234 4.257-9.481 9.482-9.481h56.889c5.224 0 9.481 4.248 9.481 9.481zm18.963-9.482v-18.963h19.721c-.446 3.11-.759 6.258-.759 9.481 0 3.224.313 6.372.759 9.482zm85.334 37.926c-26.14 0-47.407-21.267-47.407-47.407s21.267-47.407 47.407-47.407 47.407 21.267 47.407 47.407-21.267 47.407-47.407 47.407zm113.777-37.926h-48.166c.446-3.11.759-6.258.759-9.482s-.313-6.372-.759-9.481h57.647v9.481c.001 5.235-4.256 9.482-9.481 9.482z"/><path d="m549.926 259.688c0-4.76-1.773-9.311-4.959-12.8l-29.374-32.133c-3.594-3.916-8.695-6.163-14.004-6.163h-65.441c-10.458 0-18.963 8.505-18.963 18.963v75.852h132.741zm-113.778-32.132h65.441l17.332 18.963h-16.403c-15.682 0-28.444 12.762-28.444 28.444v9.481h-37.926zm56.889 56.888v-9.481c0-5.234 4.257-9.482 9.481-9.482h28.444v18.963z"/><circle cx="85.333" cy="274.963" r="9.481"/><circle cx="237.037" cy="274.963" r="9.481"/><path d="m214.765 170.155c-4.143-11.036-14.848-18.451-26.633-18.451h-67.859c-13.075 0-24.424 8.865-27.601 21.551l-8.837 35.337h145.342zm-106.638 19.475 2.949-11.776c1.052-4.229 4.836-7.187 9.197-7.187h67.859c3.935 0 7.5 2.475 8.884 6.153l4.798 12.809h-93.687z"/></g></g></svg>