<svg id="Capa_1" enable-background="new 0 0 512 512" height="512" viewBox="0 0 512 512" width="512" xmlns="http://www.w3.org/2000/svg"><g><g><path d="m367.593 188.365h-223.186c-4.143 0-7.5-3.358-7.5-7.5v-61.018c0-12.407 10.094-22.5 22.5-22.5h193.186c12.406 0 22.5 10.093 22.5 22.5v61.018c0 4.142-3.358 7.5-7.5 7.5zm-215.686-15h208.186v-53.518c0-4.136-3.364-7.5-7.5-7.5h-193.186c-4.136 0-7.5 3.364-7.5 7.5z"/></g><g><g><path d="m320.69 376.418h-129.38c-9.649 0-17.5-7.851-17.5-17.5v-91.15c0-9.649 7.851-17.5 17.5-17.5h129.38c9.649 0 17.5 7.851 17.5 17.5v91.15c0 9.65-7.85 17.5-17.5 17.5zm-129.38-111.15c-1.379 0-2.5 1.122-2.5 2.5v91.15c0 1.378 1.121 2.5 2.5 2.5h129.38c1.379 0 2.5-1.122 2.5-2.5v-91.15c0-1.378-1.121-2.5-2.5-2.5z"/></g><g><path d="m294.23 301.728h-76.46c-4.143 0-7.5-3.358-7.5-7.5s3.357-7.5 7.5-7.5h76.461c4.142 0 7.5 3.358 7.5 7.5-.001 4.142-3.358 7.5-7.501 7.5z"/></g><g><path d="m294.23 339.958h-76.46c-4.143 0-7.5-3.358-7.5-7.5s3.357-7.5 7.5-7.5h76.461c4.142 0 7.5 3.358 7.5 7.5-.001 4.142-3.358 7.5-7.501 7.5z"/></g><path d="m504.5 401.418h-30.734v-74.535c0-20.678-16.822-37.5-37.5-37.5h-19.846v-45h36.054c12.406 0 22.5-10.093 22.5-22.5v-84.691c0-11.672-8.935-21.294-20.323-22.393v-39.067c0-12.407 10.094-22.5 22.5-22.5h8.23c4.143 0 7.5-3.358 7.5-7.5v-38.23c0-4.142-3.357-7.5-7.5-7.5h-16.461c-36.354 0-66.07 28.892-67.434 64.918-6.283-4.749-14.1-7.572-22.566-7.572h-171.55c-4.143 0-7.5 3.358-7.5 7.5s3.357 7.5 7.5 7.5h171.55c12.406 0 22.5 10.093 22.5 22.5v194.535h-23.229v-41.615c0-20.678-16.822-37.5-37.5-37.5h-30.12c-4.143 0-7.5 3.358-7.5 7.5s3.357 7.5 7.5 7.5h30.12c12.406 0 22.5 10.093 22.5 22.5v153.65h-214.381v-153.65c0-12.407 10.094-22.5 22.5-22.5h106.58c4.143 0 7.5-3.358 7.5-7.5s-3.357-7.5-7.5-7.5h-106.58c-20.678 0-37.5 16.822-37.5 37.5v41.615h-23.23v-194.535c0-12.407 10.094-22.5 22.5-22.5h41.6c4.143 0 7.5-3.358 7.5-7.5s-3.357-7.5-7.5-7.5h-41.6c-8.465 0-16.282 2.822-22.566 7.572-1.363-36.026-31.08-64.918-67.434-64.918h-16.461c-4.142 0-7.5 3.358-7.5 7.5v38.23c0 4.142 3.358 7.5 7.5 7.5h8.231c12.406 0 22.5 10.093 22.5 22.5v39.112c-11.195 1.284-19.921 10.813-19.921 22.348v84.691c0 12.407 10.094 22.5 22.5 22.5h35.651v45h-19.846c-20.678 0-37.5 16.822-37.5 37.5v74.535h-30.734c-4.143 0-7.5 3.358-7.5 7.5v38.23c0 3.782 2.816 6.973 6.569 7.442l50.78 6.349v28.559c0 12.407 10.094 22.5 22.5 22.5h46.46c12.406 0 22.5-10.093 22.5-22.5v-17.123l10.68 1.335c.309.039 80.171.058 80.171.058 4.143 0 7.5-3.358 7.5-7.5s-3.357-7.5-7.5-7.5h-78.773l-145.887-18.241v-24.109h482v24.109l-145.888 18.241h-78.772c-4.143 0-7.5 3.358-7.5 7.5s3.357 7.5 7.5 7.5c0 0 79.862-.02 80.171-.058l10.68-1.335v17.123c0 12.407 10.094 22.5 22.5 22.5h46.46c12.406 0 22.5-10.093 22.5-22.5v-28.559l50.78-6.349c3.753-.469 6.569-3.66 6.569-7.442v-38.23c0-4.142-3.357-7.5-7.5-7.5zm-88.08-333.916c0-28.949 23.552-52.5 52.5-52.5h8.961v23.23c-19.631.516-38.131 13.516-38.23 37.5v38.96h-23.23v-47.19zm0 62.191 36.054-.001c4.136 0 7.5 3.364 7.5 7.5v84.691c0 4.136-3.364 7.5-7.5 7.5h-36.054zm-344.07 333.121 61.46 7.685v18.999c0 4.136-3.364 7.5-7.5 7.5h-46.46c-4.136 0-7.5-3.364-7.5-7.5zm61.46-99.626h-42.345v-23.23h42.345zm-99.691-324.956v-23.23h8.961c28.948 0 52.5 23.551 52.5 52.5v47.19h-23.23v-38.96c-.1-25.984-18.85-37.484-38.231-37.5zm25.81 191.151c-4.136 0-7.5-3.364-7.5-7.5v-84.691c0-4.136 3.364-7.5 7.5-7.5h35.651v99.69h-35.651zm-6.695 97.5c0-12.407 10.094-22.5 22.5-22.5h58.075v20.575h-49.844c-4.142 0-7.5 3.358-7.5 7.5v38.23c0 4.142 3.358 7.5 7.5 7.5h49.845v23.229h-80.576zm324.956 13.075h42.345v23.23h-42.345zm0 38.23h49.845c4.571-.429 7.071-2.929 7.5-7.5v-38.23c0-4.142-3.357-7.5-7.5-7.5h-49.845v-20.575h58.075c12.406 0 22.5 10.093 22.5 22.5v74.535h-80.575zm61.46 111.31c0 4.136-3.364 7.5-7.5 7.5h-46.46c-4.136 0-7.5-3.364-7.5-7.5v-18.999l61.46-7.685z"/></g></g></svg>